<?xml version="1.0" encoding="utf-8"?>
<!-- Generator: Adobe Illustrator 16.0.0, SVG Export Plug-In . SVG Version: 6.00 Build 0)  -->
<!DOCTYPE svg PUBLIC "-//W3C//DTD SVG 1.1//EN" "http://www.w3.org/Graphics/SVG/1.1/DTD/svg11.dtd">
<svg version="1.1" id="Layer_1" xmlns="http://www.w3.org/2000/svg" xmlns:xlink="http://www.w3.org/1999/xlink" x="0px" y="0px"
	 width="240px" height="239.994px" viewBox="0 0 240 239.994" enable-background="new 0 0 240 239.994" xml:space="preserve">
<path id="Shape_1_" fill="#AC9662" d="M119.8,239.997c-66.161,0-120-53.82-120-120c0-66.183,53.839-120,120-120
	c66.18,0,120,53.832,120,120C239.8,186.161,185.979,239.997,119.8,239.997 M119.8,10.863c-60.181,0-109.141,48.967-109.141,109.134
	c0,60.17,48.96,109.141,109.147,109.141c60.178,0,109.141-48.957,109.141-109.135C228.947,59.83,179.998,10.863,119.8,10.863"/>
<path id="Fill-3_1_" fill="#AC9662" d="M166.139,104.595c-8.956,0-16.811,3.956-24.431,13.345
	c-9.291,11.452-8.793,35.798-8.666,39.57h-6.008v-15.078c0-11.378,10.689-37.596,10.689-37.596
	c10.162-22.745,3.543-44.017,3.543-44.017c-4.069-15.323-21.371-34.865-21.371-34.865s-17.301,19.286-21.374,34.616
	c0,0-6.613,21.275,3.554,44.017c0,0,10.7,26.218,10.7,37.589v15.318h-6.211c0.153-5.034,0.27-28.032-8.683-39.069
	c-7.639-9.396-15.469-13.359-24.429-13.359c-14.335,0-25.958,11.957-25.958,26.698c0,14.46,11.158,26.207,25.085,26.689
	c-2.003-2.258-3.207-5.228-3.207-8.479c0-7.173,5.81-12.982,12.973-12.982c6.072,0,11.157,4.176,12.574,9.822
	c0,0,1.492,5.305,0.692,10.724H81.146v14.83h29.375c0.43,2.236,1.304,11.491-12.074,15.83c0,0,0.512,9.88,11.712,10.882
	c0,0,2.028,16.811,9.155,17.791c0,0,7.124-0.98,9.155-17.301c0,0,12.216-3.487,12.216-10.896c0,0-14.091-2.358-12.351-16.307h29.651
	v-14.852h-13.928c-0.986-5.554,0.611-11.207,0.611-11.207c1.414-5.625,6.498-9.801,12.571-9.801c7.152,0,12.976,5.81,12.976,12.968
	c0,3.253-1.207,6.216-3.183,8.509c13.921-0.469,25.071-12.229,25.071-26.689C192.092,116.559,180.472,104.595,166.139,104.595"/>
</svg>
