<?xml version="1.0" encoding="utf-8"?>
<!-- Generator: Adobe Illustrator 25.0.0, SVG Export Plug-In . SVG Version: 6.00 Build 0)  -->
<svg version="1.1" id="Layer_1" xmlns="http://www.w3.org/2000/svg" xmlns:xlink="http://www.w3.org/1999/xlink" x="0px" y="0px"
	 viewBox="0 0 40 32" style="enable-background:new 0 0 40 32;" xml:space="preserve">
<g id="Symbols">
	<g id="Footer-_x2F_-Bouton-infolettre-FR" transform="translate(-132.000000, -14.000000)">
		<g id="_x30_89-telegram" transform="translate(133.000000, 15.000000)">
			<path d="M30.4,30.6c-0.5,0-1-0.1-1.6-0.4l-8.4-5.9l-4.1,3.7c-0.5,0.4-1,0.8-2,0.8h-0.5l0.7-9.1L30,6.3L10.1,18l-8.8-2.6
				c-1.1-0.3-1.7-0.8-1.7-1.6c0-0.5,0.2-1.3,2.1-2L35.3-0.3c0.9-0.3,1.8-0.2,2.4,0.4c0.4,0.4,1,1.2,0.6,2.8l-5.7,25.5
				c-0.3,1-0.8,1.7-1.4,2C31,30.5,30.7,30.6,30.4,30.6z M20.3,23l9,6.3c0.6,0.3,1.2,0.4,1.6,0.2c0.4-0.2,0.7-0.6,0.9-1.3l5.7-25.5
				c0.2-0.8,0.1-1.5-0.3-1.8c-0.3-0.3-0.9-0.4-1.4-0.2L2,12.9c-1.1,0.4-1.5,0.8-1.4,1c0,0.2,0.3,0.4,1,0.6L9.9,17L29.7,5.3
				c0.8-0.5,1.7-0.5,2-0.1c0.1,0.1,0.4,0.6-0.3,1.2L15.4,20l-0.5,7.6c0.3-0.1,0.5-0.3,0.8-0.5l0.1-0.1L20.3,23z"/>
		</g>
	</g>
</g>
</svg>
