<?xml version="1.0" encoding="utf-8"?>
<!-- Generator: Adobe Illustrator 16.0.0, SVG Export Plug-In . SVG Version: 6.00 Build 0)  -->
<!DOCTYPE svg PUBLIC "-//W3C//DTD SVG 1.1//EN" "http://www.w3.org/Graphics/SVG/1.1/DTD/svg11.dtd">
<svg version="1.1" id="Layer_1" xmlns="http://www.w3.org/2000/svg" xmlns:xlink="http://www.w3.org/1999/xlink" x="0px" y="0px"
	 width="153.425px" height="165.773px" viewBox="0 0 153.425 165.773" enable-background="new 0 0 153.425 165.773"
	 xml:space="preserve">
<g>
	<polygon fill="#FFFFFF" points="2.088,2.049 2.088,113.866 42.181,113.866 42.181,71.496 72.137,101.451 102.066,71.52 
		102.066,113.866 142.136,113.866 142.136,2.253 114.589,2.253 72.112,44.731 29.607,2.226 	"/>
	<path fill="#FFFFFF" d="M144.224,115.954H99.978V76.562l-27.841,27.841L44.269,76.537v39.417H0V-0.052l30.478,0.196l41.635,41.634
		l41.614-41.613h30.498V115.954z M104.154,111.777h35.895V4.341h-24.594L72.112,47.684L28.737,4.308L4.176,4.151v107.626h35.917
		V66.456l32.044,32.043l32.017-32.02V111.777z"/>
</g>
<polygon fill="#A18F5F" points="142.136,4.62 73.676,73.081 87.07,86.474 142.136,31.407 "/>
<polygon fill="#A18F5F" points="2.088,34.534 2.088,113.866 21.029,113.866 21.029,53.474 "/>
<polygon fill="#A18F5F" points="23.24,55.686 23.24,113.866 42.181,113.866 42.181,74.627 "/>
<polygon fill="#A18F5F" points="142.136,34.534 123.194,53.474 123.194,113.866 142.136,113.866 "/>
<polygon fill="#A18F5F" points="120.983,55.686 102.042,74.627 102.042,113.866 120.983,113.866 "/>
<polygon fill="#A18F5F" points="114.589,2.253 73.678,43.165 87.072,56.559 141.375,2.253 "/>
<polygon fill="#A18F5F" points="2.847,2.253 72.108,71.514 85.503,58.122 29.634,2.253 "/>
<polygon fill="#A18F5F" points="2.088,4.62 2.088,31.407 72.111,101.429 85.505,88.037 "/>
<path fill="#A18F5F" d="M29.451,133.87c-2.688-0.045-5.221,1.253-6.754,3.46c-1.488-2.281-4.08-3.601-6.802-3.46
	c-2.283-0.068-4.481,0.878-6,2.586v-1.923H2.088v20.665h7.807v-9.886c0-2.753,0.213-5.224,2.776-5.224s2.776,2.472,2.776,5.224
	v9.886h7.809v-9.886c0-2.672,0.229-5.068,3.008-5.068c1.03-0.068,1.96,0.614,2.202,1.617c0.285,1.075,0.4,2.188,0.341,3.297v10.039
	h7.81v-13.069C36.619,136.648,34.208,133.87,29.451,133.87z"/>
<rect x="39.995" y="134.533" fill="#A18F5F" width="7.811" height="20.663"/>
<path fill="#A18F5F" d="M59.321,137.04v-2.508h-7.805v20.663h7.809v-8.41c0-3.959,1.353-5.65,4.52-5.65
	c0.976-0.056,1.947,0.157,2.81,0.611l0.552,0.31v-7.8h-1.73C63.095,134.137,60.802,135.174,59.321,137.04z"/>
<path fill="#A18F5F" d="M84.271,135.934c-1.622-1.369-3.685-2.101-5.806-2.065c-5.802,0-10.352,4.816-10.352,10.974
	c0,6.177,4.581,11.013,10.43,11.013c2.141,0.085,4.217-0.733,5.728-2.249v1.589h7.81v-20.663h-7.81V135.934L84.271,135.934z
	 M84.567,144.885c-0.052,2.342-1.99,4.197-4.328,4.147c-2.272-0.048-4.101-1.876-4.149-4.147c0-2.342,1.899-4.236,4.238-4.236
	C82.667,140.649,84.565,142.545,84.567,144.885z"/>
<path fill="#A18F5F" d="M110.72,136.056c-1.465-1.483-3.49-2.276-5.571-2.187c-6.035,0-10.585,4.803-10.585,11.169
	c0,6.112,4.287,10.546,10.194,10.546c2.203,0.062,4.343-0.739,5.961-2.232v0.076c0,3.205-0.708,5.34-4.174,5.34
	c-0.641,0-1.276-0.147-1.854-0.429c-0.541-0.246-0.951-0.713-1.128-1.283l-0.075-0.27h-8.62l0.05,0.413
	c0.609,5.156,6.486,7.939,11.709,7.939c8.01,0,11.903-4.01,11.903-12.257V134.53h-7.809L110.72,136.056L110.72,136.056z
	 M106.779,148.887c-2.166,0.174-4.062-1.447-4.232-3.613c-0.017-0.184-0.018-0.363-0.006-0.546c0-2.342,1.897-4.237,4.236-4.237
	c2.338,0,4.237,1.898,4.237,4.237c0.135,2.166-1.515,4.033-3.681,4.164C107.15,148.905,106.964,148.903,106.779,148.887
	L106.779,148.887z"/>
<path fill="#A18F5F" d="M135.949,148.314l-0.099,0.167c-0.604,1.123-1.821,1.775-3.09,1.658c-2.585,0-3.959-1.252-4.082-3.718
	v-0.036h14.901v-1.074c0-7.057-4.322-11.442-11.282-11.442c-6.928,0-11.4,4.324-11.4,11.013c0,6.667,4.672,10.974,11.906,10.974
	c2.305,0.044,4.577-0.552,6.562-1.726c1.99-1.188,3.412-3.136,3.933-5.395l0.099-0.422L135.949,148.314L135.949,148.314z
	 M132.645,139.158c1.595-0.038,3.035,0.946,3.579,2.443h-7.349C129.431,140.025,130.98,139.021,132.645,139.158z"/>
<path fill="#A18F5F" d="M148.666,2.252v0.346h-1.481v3.9h-0.404v-3.9h-1.474V2.252H148.666z"/>
<path fill="#A18F5F" d="M149.647,2.252l1.409,3.724l1.464-3.724h0.59v4.245h-0.402V2.83h-0.003l-1.453,3.668h-0.38l-1.399-3.668
	h-0.013v3.668h-0.404V2.252H149.647L149.647,2.252z"/>
</svg>
